<?xml version="1.0" encoding="UTF-8" standalone="no"?>
<!DOCTYPE svg PUBLIC "-//W3C//DTD SVG 1.1//EN" "http://www.w3.org/Graphics/SVG/1.1/DTD/svg11.dtd">
<svg width="100%" height="100%" viewBox="0 0 800 300" version="1.1" xmlns="http://www.w3.org/2000/svg" xmlns:xlink="http://www.w3.org/1999/xlink" xml:space="preserve" xmlns:serif="http://www.serif.com/" style="fill-rule:evenodd;clip-rule:evenodd;stroke-miterlimit:10;">
    <g transform="matrix(0.965811,0,0,0.965811,-183.591,-203.922)">
        <path d="M465.9,332.9L465.9,332.3C465.9,332.1 465.8,332 465.8,331.9L465.8,331.8C465.7,331.6 465.7,331.5 465.6,331.4L465.6,331.3C465.5,331.2 465.4,331 465.3,330.9L465.2,330.8L392.8,254C392.7,253.9 392.6,253.9 392.5,253.8C392.4,253.7 392.3,253.6 392.3,253.6L336.5,214.6C336.5,214.6 336.4,214.6 336.4,214.5L336.3,214.5C336.2,214.4 336,214.4 335.9,214.3L335.7,214.3C335.6,214.2 335.4,214.2 335.3,214.2L333.9,214.2C333.8,214.2 333.6,214.3 333.5,214.3L333.3,214.3C333.2,214.4 333,214.4 332.9,214.5L332.8,214.5C332.8,214.5 332.7,214.5 332.7,214.6L276.9,253.6C276.8,253.7 276.7,253.7 276.7,253.8C276.6,253.9 276.5,253.9 276.4,254L204.1,330.7L204,330.8C203.9,330.9 203.8,331.1 203.7,331.2L203.7,331.3C203.6,331.4 203.5,331.6 203.5,331.7L203.5,331.8C203.5,331.9 203.4,332.1 203.4,332.2L203.4,394.8C203.4,394.9 203.4,394.9 203.5,395L247,516.8C247,516.9 247,516.9 247.1,517L247.1,517.1C247.1,517.2 247.2,517.2 247.2,517.3C247.3,517.4 247.3,517.5 247.4,517.6L247.4,517.7C247.4,517.7 247.4,517.8 247.5,517.8C247.6,517.9 247.7,518 247.8,518.1C247.9,518.2 248,518.3 248.1,518.3C248.1,518.3 248.2,518.3 248.2,518.4C248.3,518.4 248.3,518.5 248.4,518.5L248.6,518.5C248.7,518.6 248.8,518.6 249,518.6L249.1,518.6C249.2,518.6 249.3,518.6 249.3,518.7L419.4,518.7C419.5,518.7 419.6,518.7 419.6,518.6L419.7,518.6C419.8,518.6 420,518.5 420.1,518.5L420.3,518.5C420.4,518.5 420.4,518.4 420.5,518.4C420.5,518.4 420.6,518.4 420.6,518.3C420.7,518.2 420.8,518.1 420.9,518.1C421,518 421.1,517.9 421.2,517.8C421.2,517.8 421.2,517.7 421.3,517.7L421.3,517.6C421.4,517.5 421.4,517.4 421.5,517.3C421.5,517.2 421.6,517.2 421.6,517.1L421.6,517C421.6,516.9 421.7,516.9 421.7,516.8L465.3,395.2C465.3,395.1 465.3,395.1 465.4,395L465.4,332.9L465.9,332.9ZM331.4,223.3L331.4,255.2L279.9,317.2L279.9,259.6L280.8,258.6L331.4,223.3ZM388.3,258.6L389.2,259.6L389.2,317.2L337.7,255.2L337.7,223.3L388.3,258.6ZM459.5,391.7L416.4,376.7L421.8,360.4L459.5,338.4L459.5,391.7ZM209.7,338.5L247.4,360.5L252.8,376.8L209.7,391.8L209.7,338.5ZM334.6,261.4L385.3,322.5L334.6,322.4L283.9,322.5L334.6,261.4ZM336,457.2L333.2,457.2L260.5,379.7L258.6,374L277,330.8L281.3,325.7L282,324.8L334.6,324.6L387.2,324.8L387.9,325.7L392.2,330.8L410.6,374L408.7,379.7L336,457.2ZM411.7,370.6L397.4,337.1L415.5,359L411.7,370.6ZM257.5,370.6L253.6,358.9L271.7,337L257.5,370.6ZM330,457.2L286.2,457.2L262.2,385L330,457.2ZM285.6,463.6L327.5,463.6L257.6,509.3L285.6,463.6ZM383.6,463.6L411.5,509.3L341.6,463.6L383.6,463.6ZM383,457.2L339.2,457.2L407,385L383,457.2ZM419.9,354.2L392.9,321.7L391.6,320.1L391.6,262.1L457.6,332.2L419.9,354.2ZM277.6,262.1L277.6,320.1L276.3,321.7L249.3,354.2L211.6,332.2L277.6,262.1ZM253.5,378.9L280.3,460L250.8,508.3L209.9,394.1L253.5,378.9ZM331.8,463.6L337.4,463.6L412.2,512.5L257.1,512.5L331.8,463.6ZM418.4,508.3L388.9,460L415.7,378.9L459.3,394.1L418.4,508.3Z" style="fill:white;fill-rule:nonzero;"/>
        <path d="M532.7,375.6L532.7,373.7L530.8,373.7" style="fill:white;fill-rule:nonzero;stroke:rgb(166,168,171);stroke-width:0.5px;"/>
        <path d="M517.3,373.7L515.3,373.7L515.3,375.6" style="fill:white;fill-rule:nonzero;stroke:rgb(166,168,171);stroke-width:0.5px;"/>
        <g>
            <path d="M531.8,371.3L531.8,308.5L554.6,308.5L554.6,313L537.8,313L537.8,336.6L551.5,336.6L551.5,341L537.8,341L537.8,366.8L554.7,366.8L554.7,371.3L531.8,371.3Z" style="fill:white;fill-rule:nonzero;"/>
            <path d="M555.8,372.3L530.8,372.3L530.8,307.4L555.6,307.4L555.6,314.1L538.9,314.1L538.9,335.6L552.5,335.6L552.5,342L538.9,342L538.9,365.8L555.8,365.8L555.8,372.3ZM532.9,370.2L553.7,370.2L553.7,367.9L536.8,367.9L536.8,339.9L550.4,339.9L550.4,337.7L536.8,337.7L536.8,312L553.5,312L553.5,309.5L532.9,309.5L532.9,370.2Z" style="fill:white;fill-rule:nonzero;"/>
            <path d="M591.6,372C587.4,372 584.1,371.2 581.8,369.6C579.4,368 577.8,365.7 576.8,362.8C575.8,359.9 575.4,356.5 575.4,352.8L575.4,326.8C575.4,323 575.9,319.7 576.9,316.8C577.9,314 579.6,311.8 581.9,310.2C584.2,308.6 587.5,307.9 591.6,307.9C595.6,307.9 598.8,308.7 601.2,310.2C603.6,311.8 605.2,313.9 606.2,316.8C607.2,319.6 607.7,322.9 607.7,326.8L607.7,352.9C607.7,356.7 607.2,360 606.3,362.9C605.3,365.8 603.7,368 601.4,369.7C599,371.2 595.7,372 591.6,372M591.6,367.3C594.3,367.3 596.4,366.7 597.9,365.6C599.3,364.5 600.3,362.9 600.9,360.9C601.4,358.9 601.7,356.6 601.7,354L601.7,325.5C601.7,322.9 601.4,320.6 600.9,318.6C600.4,316.6 599.4,315.1 597.9,314.1C596.5,313 594.4,312.5 591.6,312.5C588.8,312.5 586.7,313 585.2,314.1C583.7,315.2 582.7,316.7 582.2,318.6C581.7,320.6 581.4,322.9 581.4,325.5L581.4,354C581.4,356.6 581.7,358.9 582.2,360.9C582.7,362.9 583.7,364.4 585.2,365.6C586.7,366.8 588.8,367.3 591.6,367.3" style="fill:white;fill-rule:nonzero;"/>
            <path d="M591.6,373.1C587.2,373.1 583.7,372.2 581.2,370.5C578.7,368.7 576.9,366.3 575.8,363.1C574.8,360.1 574.3,356.6 574.3,352.7L574.3,326.7C574.3,322.8 574.8,319.3 575.9,316.4C577,313.4 578.8,311 581.3,309.3C583.8,307.6 587.3,306.8 591.5,306.8C595.7,306.8 599.1,307.6 601.7,309.3C604.2,311 606.1,313.4 607.1,316.4C608.1,319.3 608.6,322.8 608.6,326.7L608.6,352.8C608.6,356.7 608.1,360.1 607.1,363.1C606.1,366.2 604.3,368.6 601.8,370.4C599.4,372.2 596,373.1 591.6,373.1M591.6,308.9C587.7,308.9 584.7,309.6 582.5,311.1C580.4,312.5 578.8,314.5 577.9,317.1C576.9,319.8 576.4,323 576.4,326.7L576.4,352.7C576.4,356.3 576.9,359.6 577.8,362.4C578.7,365.1 580.2,367.2 582.4,368.7C584.6,370.2 587.7,371 591.6,371C595.5,371 598.6,370.2 600.7,368.7C602.8,367.2 604.4,365.1 605.2,362.4C606.1,359.7 606.6,356.4 606.6,352.8L606.6,326.7C606.6,323 606.1,319.8 605.2,317.1C604.3,314.5 602.8,312.5 600.6,311.1C598.5,309.6 595.4,308.9 591.6,308.9M591.6,368.4C588.6,368.4 586.2,367.8 584.6,366.5C582.9,365.3 581.8,363.5 581.2,361.3C580.6,359.2 580.3,356.8 580.3,354.1L580.3,325.6C580.3,322.9 580.6,320.5 581.2,318.4C581.8,316.2 583,314.5 584.6,313.3C586.2,312.1 588.6,311.5 591.6,311.5C594.6,311.5 596.9,312.1 598.5,313.3C600.1,314.5 601.3,316.2 601.9,318.4C602.5,320.4 602.8,322.9 602.8,325.6L602.8,354.1C602.8,356.8 602.5,359.2 602,361.3C601.4,363.5 600.3,365.3 598.6,366.5C596.9,367.7 594.6,368.4 591.6,368.4M591.6,313.6C589,313.6 587.1,314.1 585.8,315C584.5,315.9 583.7,317.2 583.2,319C582.7,320.9 582.4,323.1 582.4,325.6L582.4,354.1C582.4,356.6 582.7,358.9 583.2,360.8C583.7,362.6 584.6,363.9 585.8,364.9C587.1,365.9 589,366.4 591.6,366.4C594.1,366.4 596,365.9 597.2,365C598.5,364 599.3,362.7 599.8,360.9C600.3,359 600.6,356.8 600.6,354.2L600.6,325.7C600.6,323.2 600.3,320.9 599.8,319.1C599.3,317.4 598.5,316.1 597.2,315.1C596,314.1 594.1,313.6 591.6,313.6" style="fill:white;fill-rule:nonzero;"/>
            <path d="M644.7,372C641.3,372 638.5,371.3 636.2,369.9C634,368.5 632.3,366.5 631.1,363.9C630,361.3 629.3,358.4 629,354.9L634.2,353.4C634.5,356 634.9,358.3 635.6,360.4C636.3,362.5 637.3,364.1 638.8,365.4C640.2,366.6 642.2,367.2 644.8,367.2C647.6,367.2 649.8,366.5 651.3,365C652.9,363.6 653.6,361.3 653.6,358.1C653.6,355.3 652.9,352.9 651.5,350.9C650.1,348.9 648.3,346.8 645.9,344.5L634.9,334C632.9,332.1 631.5,330.1 630.6,328.1C629.7,326.1 629.2,323.8 629.2,321.4C629.2,317.1 630.5,313.7 633.1,311.4C635.7,309.1 639.1,307.9 643.4,307.9C645.6,307.9 647.6,308.2 649.4,308.8C651.2,309.4 652.7,310.3 654,311.6C655.3,312.9 656.3,314.5 657,316.5C657.7,318.5 658.2,321 658.5,323.9L653.5,325.2C653.3,322.6 652.9,320.3 652.2,318.4C651.6,316.5 650.5,315.1 649.2,314.1C647.8,313.1 645.9,312.6 643.5,312.6C640.9,312.6 638.8,313.3 637.1,314.6C635.4,315.9 634.6,318 634.6,320.9C634.6,322.6 634.9,324.2 635.6,325.6C636.2,327 637.4,328.5 639,330.1L650.1,340.6C652.6,342.9 654.7,345.5 656.5,348.4C658.3,351.2 659.2,354.4 659.2,358C659.2,361.2 658.6,363.8 657.4,365.9C656.2,368 654.5,369.6 652.3,370.7C650.1,371.5 647.6,372 644.7,372" style="fill:white;fill-rule:nonzero;"/>
            <path d="M644.7,373.1C641.1,373.1 638.1,372.3 635.7,370.8C633.3,369.3 631.4,367.1 630.2,364.4C629,361.7 628.3,358.6 628,355.1L627.9,354.3L635.1,352.1L635.2,353.4C635.4,355.9 635.9,358.2 636.5,360.2C637.1,362.1 638.1,363.6 639.4,364.7C640.6,365.7 642.4,366.3 644.7,366.3C647.2,366.3 649.2,365.7 650.5,364.4C651.8,363.2 652.5,361.1 652.5,358.3C652.5,355.7 651.9,353.5 650.6,351.7C649.3,349.8 647.4,347.7 645.1,345.5L634,334.9C631.9,332.9 630.4,330.8 629.4,328.7C628.4,326.5 627.9,324.1 627.9,321.6C627.9,317 629.3,313.3 632.1,310.8C634.9,308.3 638.6,307 643.1,307C645.4,307 647.5,307.3 649.4,307.9C651.3,308.5 653,309.5 654.4,310.9C655.8,312.3 656.9,314.1 657.6,316.2C658.4,318.3 658.9,320.9 659.1,323.8L659.2,324.7L652.1,326.6L652,325.4C651.8,322.9 651.4,320.7 650.8,318.9C650.2,317.2 649.4,316 648.2,315.1C647,314.3 645.3,313.8 643.1,313.8C640.8,313.8 638.9,314.4 637.4,315.6C636,316.7 635.3,318.5 635.3,321.1C635.3,322.6 635.6,324.1 636.2,325.3C636.8,326.6 637.9,328 639.4,329.5L650.5,340C653,342.4 655.2,345 657.1,347.9C659,350.9 660,354.3 660,358.1C660,361.4 659.3,364.3 658,366.5C656.7,368.8 654.8,370.5 652.5,371.7C650.4,372.5 647.7,373.1 644.7,373.1M630.2,355.7C630.5,358.6 631.1,361.2 632.1,363.5C633.1,365.9 634.7,367.7 636.8,369C638.9,370.3 641.5,371 644.7,371C647.4,371 649.7,370.5 651.8,369.5C653.8,368.5 655.3,367.1 656.4,365.2C657.5,363.3 658.1,360.8 658.1,357.8C658.1,354.5 657.2,351.4 655.6,348.7C653.8,345.9 651.7,343.4 649.3,341.2L638.2,330.7C636.5,329 635.2,327.4 634.5,325.9C633.8,324.4 633.4,322.7 633.4,320.8C633.4,317.6 634.4,315.3 636.3,313.7C638.1,312.2 640.5,311.5 643.3,311.5C645.9,311.5 648.1,312.1 649.6,313.2C651.1,314.3 652.3,315.9 653,318C653.6,319.7 654,321.6 654.2,323.8L657.2,323C656.9,320.6 656.5,318.5 655.9,316.8C655.2,314.9 654.3,313.4 653.2,312.3C652.1,311.2 650.7,310.3 649,309.8C647.3,309.3 645.4,309 643.3,309C639.3,309 636.1,310.1 633.7,312.2C631.3,314.3 630.2,317.4 630.2,321.4C630.2,323.7 630.6,325.8 631.5,327.7C632.4,329.6 633.8,331.5 635.6,333.3L646.7,343.9C649.1,346.2 651.1,348.4 652.5,350.4C654,352.6 654.7,355.2 654.7,358.2C654.7,361.6 653.8,364.2 652,365.9C650.3,367.5 647.8,368.4 644.8,368.4C642,368.4 639.8,367.7 638.2,366.3C636.6,365 635.4,363.1 634.7,360.9C634.1,359.1 633.7,357.1 633.4,354.9L630.2,355.7Z" style="fill:white;fill-rule:nonzero;"/>
        </g>
        <g>
            <path d="M531.8,461.4L531.8,398.6L554.4,398.6L554.4,403L537.7,403L537.7,426.7L551.6,426.7L551.6,431L537.7,431L537.7,461.4L531.8,461.4Z" style="fill:white;fill-rule:nonzero;"/>
            <path d="M538.8,462.4L530.8,462.4L530.8,397.5L555.5,397.5L555.5,404L538.8,404L538.8,425.6L552.7,425.6L552.7,432L538.8,432L538.8,462.4ZM532.9,460.3L536.7,460.3L536.7,430L550.6,430L550.6,427.8L536.7,427.8L536.7,402L553.4,402L553.4,399.7L532.9,399.7L532.9,460.3Z" style="fill:white;fill-rule:nonzero;"/>
            <path d="M590.6,462.2C586.4,462.2 583.1,461.4 580.8,459.8C578.4,458.2 576.8,455.9 575.8,453C574.8,450.1 574.4,446.7 574.4,443L574.4,417C574.4,413.2 574.9,409.9 575.9,407C576.9,404.2 578.6,402 580.9,400.4C583.2,398.8 586.5,398.1 590.6,398.1C594.6,398.1 597.8,398.9 600.2,400.4C602.6,402 604.2,404.1 605.2,407C606.2,409.8 606.7,413.1 606.7,417L606.7,443.1C606.7,446.9 606.2,450.2 605.3,453.1C604.3,456 602.7,458.2 600.4,459.9C598,461.3 594.7,462.2 590.6,462.2M590.6,457.4C593.3,457.4 595.4,456.8 596.9,455.7C598.3,454.6 599.3,453 599.9,451C600.4,449 600.7,446.7 600.7,444.1L600.7,415.6C600.7,413 600.4,410.7 599.9,408.7C599.4,406.7 598.4,405.2 596.9,404.2C595.5,403.1 593.4,402.6 590.6,402.6C587.8,402.6 585.7,403.1 584.2,404.2C582.7,405.3 581.7,406.8 581.2,408.7C580.7,410.7 580.4,413 580.4,415.6L580.4,444.1C580.4,446.7 580.7,449 581.2,451C581.7,453 582.7,454.5 584.2,455.7C585.7,456.9 587.8,457.4 590.6,457.4" style="fill:white;fill-rule:nonzero;"/>
            <path d="M590.6,463.2C586.2,463.2 582.7,462.3 580.2,460.6C577.7,458.8 575.9,456.4 574.8,453.2C573.8,450.2 573.3,446.7 573.3,442.8L573.3,416.8C573.3,412.9 573.8,409.4 574.9,406.5C576,403.5 577.8,401.1 580.3,399.4C582.8,397.7 586.3,396.9 590.5,396.9C594.7,396.9 598.1,397.7 600.6,399.4C603.1,401.1 605,403.5 606,406.5C607,409.4 607.5,412.9 607.5,416.8L607.5,442.9C607.5,446.8 607,450.2 606,453.2C605,456.3 603.2,458.7 600.7,460.5C598.4,462.3 595,463.2 590.6,463.2M590.6,399C586.7,399 583.7,399.7 581.5,401.2C579.4,402.6 577.8,404.6 576.9,407.2C575.9,409.9 575.4,413.1 575.4,416.8L575.4,442.8C575.4,446.4 575.9,449.7 576.8,452.5C577.7,455.2 579.2,457.3 581.4,458.8C583.6,460.3 586.7,461.1 590.6,461.1C594.5,461.1 597.6,460.3 599.7,458.8C601.8,457.3 603.4,455.2 604.2,452.5C605.1,449.8 605.6,446.5 605.6,442.9L605.6,416.8C605.6,413.1 605.1,409.9 604.2,407.2C603.3,404.6 601.8,402.6 599.6,401.2C597.4,399.8 594.4,399 590.6,399M590.6,458.5C587.6,458.5 585.2,457.9 583.6,456.6C581.9,455.4 580.8,453.6 580.2,451.4C579.6,449.3 579.3,446.9 579.3,444.2L579.3,415.7C579.3,413 579.6,410.6 580.2,408.5C580.8,406.3 582,404.6 583.6,403.4C585.2,402.2 587.6,401.6 590.6,401.6C593.6,401.6 595.9,402.2 597.5,403.4C599.1,404.6 600.3,406.3 600.9,408.5C601.5,410.5 601.8,413 601.8,415.7L601.8,444.2C601.8,446.9 601.5,449.3 600.9,451.4C600.3,453.6 599.2,455.4 597.5,456.6C595.9,457.9 593.6,458.5 590.6,458.5M590.6,403.8C588,403.8 586.1,404.3 584.8,405.2C583.5,406.1 582.7,407.4 582.2,409.2C581.7,411.1 581.4,413.3 581.4,415.8L581.4,444.3C581.4,446.8 581.7,449.1 582.2,451C582.7,452.8 583.5,454.1 584.8,455.1C586.1,456.1 588,456.6 590.6,456.6C593.1,456.6 595,456.1 596.2,455.2C597.5,454.2 598.3,452.9 598.8,451.1C599.3,449.2 599.6,447 599.6,444.4L599.6,415.9C599.6,413.4 599.3,411.1 598.8,409.3C598.3,407.6 597.5,406.3 596.2,405.3C595,404.2 593.1,403.8 590.6,403.8" style="fill:white;fill-rule:nonzero;"/>
            <path d="M645.7,462.2C641.5,462.2 638.2,461.4 635.8,459.9C633.4,458.4 631.8,456.3 631,453.5C630.1,450.8 629.7,447.7 629.7,444.2L629.7,398.5L635.4,398.5L635.4,444.3C635.4,446.7 635.7,448.9 636.2,450.9C636.7,452.9 637.8,454.5 639.3,455.6C640.8,456.7 642.9,457.3 645.7,457.3C648.4,457.3 650.5,456.7 652,455.6C653.5,454.4 654.5,452.9 655.1,450.9C655.7,448.9 656,446.7 656,444.3L656,398.5L661.7,398.5L661.7,444.2C661.7,447.7 661.2,450.8 660.3,453.5C659.4,456.2 657.7,458.3 655.4,459.9C653.1,461.4 649.9,462.2 645.7,462.2" style="fill:white;fill-rule:nonzero;"/>
            <path d="M645.7,463.2C641.3,463.2 637.8,462.4 635.2,460.7C632.7,459 630.9,456.7 629.9,453.8C629,451 628.5,447.8 628.5,444.2L628.5,397.5L636.3,397.5L636.3,444.4C636.3,446.7 636.6,448.9 637.1,450.8C637.6,452.6 638.5,453.9 639.8,454.9C641.1,455.9 643.1,456.4 645.6,456.4C648,456.4 649.9,455.9 651.2,454.9C652.5,453.9 653.4,452.5 654,450.7C654.6,448.8 654.8,446.7 654.8,444.4L654.8,397.5L662.6,397.5L662.6,444.2C662.6,447.8 662.1,451 661.1,453.8C660.1,456.7 658.3,459 655.8,460.7C653.5,462.4 650,463.2 645.7,463.2M630.7,399.6L630.7,444.2C630.7,447.5 631.1,450.5 632,453.1C632.8,455.6 634.3,457.5 636.4,458.9C638.6,460.3 641.7,461 645.7,461C649.6,461 652.7,460.3 654.8,458.9C656.9,457.5 658.4,455.6 659.3,453.1C660.2,450.5 660.6,447.5 660.6,444.2L660.6,399.6L657,399.6L657,444.4C657,446.9 656.7,449.2 656.1,451.3C655.4,453.5 654.3,455.2 652.6,456.5C650.9,457.8 648.6,458.5 645.7,458.5C642.7,458.5 640.3,457.9 638.6,456.6C636.9,455.3 635.8,453.6 635.2,451.4C634.6,449.3 634.3,447 634.3,444.5L634.3,399.7L630.7,399.7L630.7,399.6Z" style="fill:white;fill-rule:nonzero;"/>
            <path d="M686,461.4L686,398.6L690.2,398.6L710.2,447.4L710.2,398.6L715.3,398.6L715.3,461.4L711.2,461.4L691.1,412.1L691.1,461.4L686,461.4Z" style="fill:white;fill-rule:nonzero;"/>
            <path d="M716.5,462.4L710.5,462.4L692.2,417.4L692.2,462.4L685,462.4L685,397.5L691,397.5L709.3,442L709.3,397.5L716.5,397.5L716.5,462.4ZM711.9,460.3L714.3,460.3L714.3,399.6L711.3,399.6L711.3,452.6L689.6,399.6L687,399.6L687,460.3L690,460.3L690,406.7L711.9,460.3Z" style="fill:white;fill-rule:nonzero;"/>
            <path d="M740.2,461.5L740.2,398.6L753.8,398.6C758.2,398.6 761.6,399.4 764.1,400.9C766.6,402.4 768.3,404.6 769.3,407.4C770.3,410.2 770.9,413.4 770.9,417.1L770.9,442.1C770.9,446 770.4,449.4 769.3,452.3C768.3,455.2 766.6,457.5 764.2,459.1C761.8,460.7 758.5,461.5 754.4,461.5L740.2,461.5ZM746,457L754,457C757.3,457 759.7,456.3 761.3,454.9C762.9,453.5 763.8,451.6 764.2,449.2C764.6,446.8 764.8,444.1 764.8,441L764.8,417.6C764.8,414.4 764.5,411.8 764,409.7C763.5,407.6 762.4,405.9 760.8,404.8C759.2,403.7 756.9,403.1 753.7,403.1L746,403.1L746,457Z" style="fill:white;fill-rule:nonzero;"/>
            <path d="M754.4,462.4L739.2,462.4L739.2,397.5L753.9,397.5C758.5,397.5 762.1,398.3 764.7,399.9C767.3,401.5 769.2,403.9 770.4,406.9C771.5,409.8 772,413.2 772,417L772,442C772,446 771.5,449.5 770.4,452.5C769.3,455.6 767.4,458.1 764.9,459.8C762.3,461.6 758.8,462.4 754.4,462.4M741.3,460.3L754.4,460.3C758.4,460.3 761.5,459.6 763.7,458.1C765.9,456.6 767.5,454.5 768.4,451.8C769.4,449 769.9,445.7 769.9,442L769.9,417C769.9,413.5 769.4,410.3 768.4,407.7C767.4,405.1 765.9,403.2 763.6,401.7C761.3,400.3 758.1,399.6 753.9,399.6L741.3,399.6L741.3,460.3ZM754,458L745,458L745,402.1L753.7,402.1C757.1,402.1 759.6,402.7 761.4,404C763.2,405.3 764.4,407.1 765,409.5C765.6,411.7 765.8,414.5 765.8,417.7L765.8,441.1C765.8,444.2 765.6,447 765.2,449.5C764.7,452.1 763.6,454.2 761.9,455.8C760.3,457.2 757.6,458 754,458M747.2,455.9L754.1,455.9C757.1,455.9 759.4,455.3 760.7,454.1C762.1,452.9 762.9,451.2 763.3,449C763.7,446.7 763.9,444 763.9,441L763.9,417.6C763.9,414.5 763.6,412 763.1,409.9C762.6,408 761.7,406.6 760.3,405.6C758.9,404.6 756.7,404.1 753.8,404.1L747.2,404.1L747.2,455.9Z" style="fill:white;fill-rule:nonzero;"/>
            <path d="M791.2,461.4L804.5,398.6L810.7,398.6L824,461.4L818.2,461.4L815.1,444.6L800.1,444.6L796.9,461.4L791.2,461.4ZM800.9,440.3L814.2,440.3L807.5,406.4L800.9,440.3Z" style="fill:white;fill-rule:nonzero;"/>
            <path d="M825.2,462.4L817.2,462.4L814.1,445.6L800.9,445.6L797.7,462.4L789.8,462.4L803.5,397.5L811.4,397.5L825.2,462.4ZM819,460.3L822.7,460.3L809.8,399.6L805.3,399.6L792.5,460.3L796.1,460.3L799.3,443.5L816,443.5L819,460.3ZM815.5,441.4L799.6,441.4L807.5,401.1L815.5,441.4ZM802.2,439.3L813,439.3L807.6,411.9L802.2,439.3Z" style="fill:white;fill-rule:nonzero;"/>
            <path d="M850.5,461.4L850.5,403.2L838.6,403.2L838.6,398.6L867.9,398.6L867.9,403.2L856.4,403.2L856.4,461.4L850.5,461.4Z" style="fill:white;fill-rule:nonzero;"/>
            <path d="M857.4,462.4L849.4,462.4L849.4,404.2L837.5,404.2L837.5,397.5L869,397.5L869,404.2L857.4,404.2L857.4,462.4ZM851.5,460.3L855.3,460.3L855.3,402.1L866.8,402.1L866.8,399.6L839.6,399.6L839.6,402.1L851.5,402.1L851.5,460.3Z" style="fill:white;fill-rule:nonzero;"/>
            <rect x="888.9" y="398.6" width="5.9" height="62.8" style="fill:white;"/>
            <path d="M895.9,462.4L887.9,462.4L887.9,397.5L895.9,397.5L895.9,462.4ZM890,460.3L893.8,460.3L893.8,399.6L890,399.6L890,460.3Z" style="fill:white;fill-rule:nonzero;"/>
            <path d="M934.8,462.2C930.6,462.2 927.3,461.4 925,459.8C922.6,458.2 921,455.9 920,453C919,450.1 918.6,446.7 918.6,443L918.6,417C918.6,413.2 919.1,409.9 920.1,407C921.1,404.2 922.8,402 925.1,400.4C927.5,398.8 930.7,398.1 934.8,398.1C938.8,398.1 942,398.9 944.4,400.4C946.8,402 948.4,404.1 949.4,407C950.4,409.8 950.9,413.1 950.9,417L950.9,443.1C950.9,446.9 950.4,450.2 949.5,453.1C948.5,456 946.9,458.2 944.6,459.9C942.2,461.3 938.9,462.2 934.8,462.2M934.8,457.4C937.5,457.4 939.6,456.8 941.1,455.7C942.5,454.6 943.5,453 944.1,451C944.6,449 944.9,446.7 944.9,444.1L944.9,415.6C944.9,413 944.6,410.7 944.1,408.7C943.6,406.7 942.6,405.2 941.1,404.2C939.7,403.1 937.6,402.6 934.8,402.6C932,402.6 929.9,403.1 928.4,404.2C926.9,405.3 925.9,406.8 925.4,408.7C924.9,410.7 924.6,413 924.6,415.6L924.6,444.1C924.6,446.7 924.9,449 925.4,451C925.9,453 926.9,454.5 928.4,455.7C929.9,456.9 932,457.4 934.8,457.4" style="fill:white;fill-rule:nonzero;"/>
            <path d="M934.8,463.2C930.4,463.2 926.9,462.3 924.4,460.6C921.9,458.8 920.1,456.4 919,453.2C918,450.2 917.5,446.7 917.5,442.8L917.5,416.8C917.5,412.9 918,409.4 919.1,406.5C920.2,403.5 922,401.1 924.5,399.4C927,397.7 930.5,396.9 934.7,396.9C938.9,396.9 942.3,397.7 944.9,399.4C947.4,401.1 949.3,403.5 950.3,406.5C951.3,409.4 951.8,412.9 951.8,416.8L951.8,442.9C951.8,446.8 951.3,450.2 950.3,453.2C949.3,456.3 947.5,458.7 945,460.5C942.6,462.3 939.1,463.2 934.8,463.2M934.8,399C930.9,399 927.9,399.7 925.7,401.2C923.6,402.6 922,404.6 921.1,407.2C920.1,409.9 919.6,413.1 919.6,416.8L919.6,442.8C919.6,446.4 920.1,449.7 921,452.5C921.9,455.2 923.4,457.3 925.6,458.8C927.8,460.3 930.9,461.1 934.8,461.1C938.7,461.1 941.8,460.3 943.9,458.8C946,457.3 947.6,455.2 948.4,452.5C949.3,449.8 949.8,446.5 949.8,442.9L949.8,416.8C949.8,413.1 949.3,409.9 948.4,407.2C947.5,404.6 946,402.6 943.8,401.2C941.6,399.8 938.6,399 934.8,399M934.8,458.5C931.8,458.5 929.4,457.9 927.8,456.6C926.1,455.4 925,453.6 924.4,451.4C923.8,449.3 923.5,446.9 923.5,444.2L923.5,415.7C923.5,413 923.8,410.6 924.4,408.5C925,406.3 926.2,404.6 927.8,403.4C929.4,402.2 931.8,401.6 934.8,401.6C937.8,401.6 940.1,402.2 941.7,403.4C943.3,404.6 944.5,406.3 945.1,408.5C945.7,410.5 946,413 946,415.7L946,444.2C946,446.9 945.7,449.3 945.1,451.4C944.5,453.6 943.4,455.4 941.7,456.6C940.1,457.9 937.8,458.5 934.8,458.5M934.8,403.8C932.2,403.8 930.3,404.3 929,405.2C927.7,406.1 926.9,407.4 926.4,409.2C925.9,411.1 925.6,413.3 925.6,415.8L925.6,444.3C925.6,446.8 925.9,449.1 926.4,451C926.9,452.8 927.8,454.1 929,455.1C930.3,456.1 932.2,456.6 934.8,456.6C937.3,456.6 939.2,456.1 940.4,455.2C941.7,454.2 942.5,452.9 943,451.1C943.5,449.2 943.8,447 943.8,444.4L943.8,415.9C943.8,413.4 943.5,411.1 943,409.3C942.5,407.6 941.7,406.3 940.4,405.3C939.2,404.2 937.3,403.8 934.8,403.8" style="fill:white;fill-rule:nonzero;"/>
            <path d="M974.6,461.4L974.6,398.6L978.8,398.6L998.8,447.4L998.8,398.6L1004,398.6L1004,461.4L999.8,461.4L979.7,412.1L979.7,461.4L974.6,461.4Z" style="fill:white;fill-rule:nonzero;"/>
            <path d="M1005.1,462.4L999.1,462.4L980.8,417.4L980.8,462.4L973.6,462.4L973.6,397.5L979.6,397.5L997.9,442L997.9,397.5L1005.1,397.5L1005.1,462.4ZM1000.5,460.3L1002.9,460.3L1002.9,399.6L999.9,399.6L999.9,452.6L978.2,399.6L975.7,399.6L975.7,460.3L978.7,460.3L978.7,406.7L1000.5,460.3Z" style="fill:white;fill-rule:nonzero;"/>
        </g>
    </g>
</svg>
